<?xml version="1.0" encoding="UTF-8" standalone="no"?>
<svg
   width="176.70398"
   height="42.175915"
   viewBox="0 0 130.11499 31.032846"
   xml:space="preserve"
   version="1.1"
   id="svg9"
   sodipodi:docname="d515eb50761f3d3019e681a6d1656c56.svg"
   xmlns:inkscape="http://www.inkscape.org/namespaces/inkscape"
   xmlns:sodipodi="http://sodipodi.sourceforge.net/DTD/sodipodi-0.dtd"
   xmlns="http://www.w3.org/2000/svg"
   xmlns:svg="http://www.w3.org/2000/svg"><defs
   id="defs13" /><sodipodi:namedview
   id="namedview11"
   pagecolor="#ffffff"
   bordercolor="#666666"
   borderopacity="1.0"
   inkscape:pageshadow="2"
   inkscape:pageopacity="0.0"
   inkscape:pagecheckerboard="0" />
<path
   id="logo-e1"
   class="st1"
   d="m 36.057,20.164922 c 0.539,-0.58 1.446,-0.612 2.026,-0.072 0.579,0.539 0.612,1.445 0.072,2.025 -0.899,0.967 -1.998,1.75 -3.229,2.287 -1.191,0.52 -2.499,0.807 -3.866,0.807 -2.678,0 -5.103,-1.086 -6.857,-2.84 -1.755,-1.756 -2.84,-4.18 -2.84,-6.857 0,-2.677 1.085,-5.102 2.84,-6.8569998 1.755,-1.755 4.18,-2.84 6.857,-2.84 2.677,0 5.102,1.085 6.856,2.84 1.755,1.7549998 2.841,4.1799998 2.841,6.8569998 0,0.794 -0.644,1.438 -1.438,1.438 H 28.084 c -0.793,0 -1.437,-0.644 -1.437,-1.438 0,-0.794 0.643,-1.437 1.437,-1.437 h 9.648 c -0.28,-1.308 -0.935,-2.476 -1.847,-3.388 -1.234,-1.2349998 -2.94,-1.9979998 -4.824,-1.9979998 -1.885,0 -3.591,0.764 -4.825,1.9979998 -1.234,1.234 -1.998,2.941 -1.998,4.825 0,1.885 0.764,3.59 1.998,4.825 1.234,1.233 2.94,1.999 4.825,1.999 0.975,0 1.895,-0.2 2.722,-0.561 0.864,-0.376 1.637,-0.929 2.274,-1.613 z" />
<path
   id="logo-d1"
   class="st1"
   d="m 19.394,15.449922 v 0.02 0 10e-4 0.044 c 0,2.678 -1.086,5.102 -2.841,6.857 -1.755,1.754 -4.18,2.84 -6.856,2.84 -2.677,0 -5.102,-1.086 -6.856,-2.84 -1.755,-1.756 -2.841,-4.18 -2.841,-6.857 0,-2.677 1.086,-5.102 2.841,-6.8569998 1.755,-1.755 4.18,-2.84 6.856,-2.84 v 0.005 l 3.473,0.004 c 0.79,0 1.431,0.641 1.431,1.431 0,0.79 -0.641,1.432 -1.431,1.432 l -3.473,-0.004 v 0.006 c -1.884,0 -3.59,0.764 -4.824,1.9979998 -1.235,1.234 -1.999,2.941 -1.999,4.825 0,1.885 0.764,3.59 1.999,4.825 1.234,1.233 2.94,1.999 4.824,1.999 1.884,0 3.59,-0.766 4.825,-1.999 1.234,-1.235 1.998,-2.94 1.998,-4.825 v -0.036 -0.029 -0.192 -0.002 l -0.002,-0.03 c -0.001,-0.047 -0.001,-0.094 0.002,-0.14 V 1.4249222 c 0,-0.79299998 0.644,-1.43699998 1.436,-1.43699998 0.794,0 1.438,0.644 1.438,1.43699998 V 15.257922 Z" />
<path
   id="logo-q"
   class="st1"
   d="m 59.246,15.579922 v -0.029 -0.036 c 0,-1.884 -0.764,-3.59 -1.999,-4.825 -1.234,-1.2349998 -2.941,-1.9979998 -4.824,-1.9979998 -1.884,0 -3.59,0.764 -4.825,1.9979998 -1.234,1.234 -1.998,2.941 -1.998,4.825 0,1.885 0.764,3.59 1.998,4.825 1.235,1.233 2.941,1.999 4.825,1.999 v 0.005 l 3.473,-0.004 c 0.79,0 1.431,0.642 1.431,1.431 0,0.791 -0.641,1.432 -1.431,1.432 l -3.473,0.005 v 0.006 c -2.677,0 -5.102,-1.086 -6.856,-2.84 -1.755,-1.757 -2.841,-4.181 -2.841,-6.857 0,-2.676 1.086,-5.101 2.841,-6.8569998 1.755,-1.755 4.18,-2.84 6.856,-2.84 2.678,0 5.101,1.085 6.856,2.84 1.755,1.7549998 2.841,4.1799998 2.841,6.8569998 v 0.044 0 10e-4 0.019 0.192 13.833 c 0,0.795 -0.644,1.438 -1.438,1.438 -0.793,0 -1.436,-0.644 -1.436,-1.438 v -13.66 c -0.003,-0.046 -0.003,-0.092 -0.001,-0.139 l 0.001,-0.031 v -0.003 z" />
<path
   id="logo-e2"
   class="st1"
   d="m 121.519,20.164922 c 0.539,-0.58 1.446,-0.612 2.024,-0.072 0.58,0.539 0.613,1.445 0.074,2.025 -0.9,0.967 -1.998,1.75 -3.229,2.287 -1.19,0.52 -2.5,0.807 -3.867,0.807 -2.677,0 -5.103,-1.086 -6.856,-2.84 -1.754,-1.756 -2.84,-4.18 -2.84,-6.857 0,-2.677 1.086,-5.102 2.84,-6.8569998 1.756,-1.755 4.181,-2.84 6.856,-2.84 2.679,0 5.103,1.085 6.856,2.84 1.755,1.7549998 2.841,4.1799998 2.841,6.8569998 0,0.794 -0.644,1.438 -1.437,1.438 h -11.236 c -0.795,0 -1.438,-0.644 -1.438,-1.438 0,-0.794 0.643,-1.437 1.438,-1.437 h 9.646 c -0.279,-1.308 -0.936,-2.476 -1.848,-3.388 -1.234,-1.2349998 -2.939,-1.9979998 -4.824,-1.9979998 -1.884,0 -3.59,0.764 -4.824,1.9979998 -1.234,1.234 -1.998,2.941 -1.998,4.825 0,1.885 0.764,3.59 1.998,4.825 1.234,1.233 2.94,1.999 4.824,1.999 0.975,0 1.896,-0.2 2.723,-0.561 0.867,-0.376 1.64,-0.929 2.277,-1.613 z" />
<path
   id="logo-d2"
   class="st1"
   d="m 104.855,15.449922 v 0.02 0 10e-4 0.044 c 0,2.678 -1.085,5.102 -2.84,6.857 -1.755,1.754 -4.181,2.84 -6.856,2.84 -2.678,0 -5.103,-1.086 -6.856,-2.84 -1.755,-1.756 -2.841,-4.18 -2.841,-6.857 0,-2.677 1.086,-5.102 2.841,-6.8569998 1.755,-1.755 4.18,-2.84 6.856,-2.84 v 0.005 l 3.473,0.004 c 0.791,0 1.432,0.641 1.432,1.431 0,0.79 -0.641,1.432 -1.432,1.432 l -3.473,-0.004 v 0.006 c -1.885,0 -3.591,0.764 -4.824,1.9979998 -1.234,1.234 -1.998,2.941 -1.998,4.825 0,1.885 0.764,3.59 1.998,4.825 1.234,1.233 2.939,1.999 4.824,1.999 1.885,0 3.59,-0.766 4.824,-1.999 1.234,-1.235 1.999,-2.94 1.999,-4.825 v -0.036 l -0.001,-0.029 v -0.192 -0.002 l -10e-4,-0.03 c -0.002,-0.047 -0.001,-0.094 10e-4,-0.14 V 1.4249222 c 0,-0.79299998 0.645,-1.43699998 1.438,-1.43699998 0.795,0 1.438,0.644 1.438,1.43699998 V 15.257922 Z" />
<path
   id="logo-o"
   class="st1"
   d="m 80.651,8.6549222 c -1.756,-1.756 -4.181,-2.842 -6.859,-2.842 -2.68,0 -5.105,1.086 -6.86,2.842 -1.756,1.7559998 -2.843,4.1819998 -2.843,6.8609998 0,2.679 1.087,5.104 2.843,6.861 1.756,1.756 4.181,2.842 6.86,2.842 2.678,0 5.104,-1.086 6.859,-2.842 1.756,-1.757 2.842,-4.183 2.842,-6.861 0,-2.678 -1.086,-5.105 -2.842,-6.8609998 z M 78.62,20.344922 c -1.235,1.234 -2.942,1.999 -4.828,1.999 -1.887,0 -3.594,-0.765 -4.83,-1.999 -1.234,-1.236 -1.998,-2.943 -1.998,-4.829 0,-1.886 0.764,-3.594 1.998,-4.829 1.236,-1.2359998 2.943,-1.9999998 4.83,-1.9999998 1.886,0 3.593,0.764 4.828,1.9999998 1.235,1.235 2,2.943 2,4.829 0,1.888 -0.765,3.595 -2,4.829 z" /> 
<circle
   id="logo-dot"
   class="st0"
   cx="128.09599"
   cy="23.193922"
   r="2.0190001" />
</svg>
